<svg  xmlns="http://www.w3.org/2000/svg" version="1.0" width="200px" height="145px" id="svg7657" xmlns:xlink="http://www.w3.org/1999/xlink" viewBox="0 -0.179558 330 460.359" preserveAspectRatio="xMidYMid meet"><rect id="svgEditorBackground" x="0" y="0" width="330" height="460" style="fill: none; stroke: none;"/>
  <defs id="defs8"/>
  
  
  <path d="M165,30c-9.320279999999997,10.57656,-15,24.421260000000004,-15,39.61722c0.5523200000000088,33.36574,4.644599999999997,66.66376,5,100.0195c0.7398599999999931,31.08681999999999,-8.584499999999991,60.284760000000006,-19.921879999999987,88.7673c-3.7777399999999943,7.870799999999974,-7.864159999999998,15.574540000000013,-11.953119999999998,23.285799999999995l-12.031260000000003,-2.422460000000001c-10.825739999999996,-2.1646799999999757,-17.867499999999993,-12.692240000000027,-15.703119999999998,-23.520100000000014c1.8938600000000037,-9.474340000000012,10.231319999999997,-16.053380000000004,19.531260000000003,-16.09688l4.375,0.46884000000000015l-9.765640000000005,-81.57839999999999c-3.1919400000000167,-36.32733999999999,-21.930080000000018,-68.19206,-49.53124000000001,-88.9236c-4.743160000000003,-3.5627000000000066,-9.76876,-6.81982,-15,-9.68938l0,289.74398l66.875,0c5.000320000000002,27.149819999999977,19.93943999999999,50.802160000000015,40.937479999999994,67.04434000000003c4.994720000000001,3.4431599999999776,9.178460000000001,7.984300000000019,12.187520000000006,13.283839999999998c3.009060000000005,-5.299539999999979,7.192800000000005,-9.84068000000002,12.1875,-13.283839999999998c20.99806000000001,-16.24218000000002,35.93719999999999,-39.89452,40.9375,-67.04434000000003l66.875,0l0,-289.74398c-5.231240000000014,2.86956,-10.256840000000011,6.126679999999993,-15,9.68938c-27.601159999999993,20.731539999999995,-46.33930000000001,52.59626,-49.53124,88.9236l-9.76563999999999,81.57839999999999l4.375,-0.46884000000000015c9.299939999999992,0.04359999999999786,17.63741999999999,6.6225399999999865,19.531260000000003,16.09688c2.164379999999994,10.827859999999987,-4.87736000000001,21.35541999999998,-15.703120000000013,23.520100000000014l-12.031260000000003,2.422460000000001c-4.088940000000008,-7.711259999999982,-8.17537999999999,-15.41500000000002,-11.953120000000013,-23.285799999999995c-11.337379999999996,-28.48254,-20.66173999999998,-57.68047999999999,-19.921879999999987,-88.7673c0.35540000000000305,-33.35574,4.447679999999991,-66.65376,4.999979999999994,-100.0195c0,-15.195960000000007,-5.679699999999997,-29.040660000000003,-14.999979999999994,-39.61722ZM65,101.65472c12.942700000000002,15.192719999999994,21.628839999999997,34.12513999999999,24.218760000000003,54.93245999999999l8.046859999999995,67.27888000000002c-10.246399999999994,5.1019799999999975,-18.014139999999998,14.462060000000008,-20.9375,25.78626l-11.328119999999998,0l0,-147.9976ZM265,101.65472l0,147.9976l-11.328120000000013,0c-2.923339999999996,-11.32419999999999,-10.691100000000006,-20.68428,-20.9375,-25.78626l8.046879999999987,-67.27888000000002c2.5899000000000285,-20.807319999999976,11.276040000000023,-39.73973999999998,24.218740000000025,-54.93245999999999ZM165,236.91534c5.372399999999999,17.57517999999999,12.763779999999997,34.26394000000002,21.953120000000013,49.77545999999998c-8.740520000000004,2.6557600000000434,-16.347620000000006,7.821520000000021,-21.953120000000013,14.768380000000036c-5.605520000000013,-6.946860000000015,-13.212600000000009,-12.112619999999993,-21.953120000000013,-14.76837999999998c9.18932000000001,-15.511520000000019,16.580720000000014,-32.20028000000002,21.953120000000013,-49.77546000000004ZM65,269.65621999999996l11.328119999999998,0c3.5716599999999943,13.805200000000013,14.347560000000001,24.71307999999999,28.04688,28.521059999999977l9.609359999999995,2.1879200000000196c-2.573039999999992,9.329580000000021,-3.9843599999999952,19.159240000000068,-3.9843599999999952,29.302720000000022l-45,0l0,-60.01170000000002ZM253.67188,269.65621999999996l11.328120000000013,0l0,60.01170000000002l-45,0c0,-10.143480000000011,-1.4113199999999892,-19.97314,-3.9843600000000094,-29.302720000000022l9.60936000000001,-2.1879200000000196c13.69932,-3.8079799999999864,24.475239999999985,-14.71586000000002,28.046879999999987,-28.521059999999977ZM133.51562,304.9756c12.132479999999987,1.7151000000000067,21.484379999999987,12.086620000000039,21.484379999999987,24.692319999999995l-25,0c0,-8.57492000000002,1.2699800000000039,-16.838520000000017,3.5156200000000126,-24.692319999999995ZM196.48438000000002,304.9756c2.2456400000000087,7.853799999999978,3.5156399999999906,16.117399999999975,3.5156399999999906,24.692319999999995l-25.000020000000006,0c0,-12.605700000000013,9.3519,-22.97721999999999,21.484379999999987,-24.692319999999995ZM132.26562,349.67181999999997l22.734379999999987,0l0,42.11748c-11.033179999999987,-11.536519999999996,-19.048020000000008,-26.022580000000005,-22.734379999999987,-42.11748ZM175,349.67181999999997l22.734379999999987,0c-3.6863400000000013,16.094900000000052,-11.701219999999978,30.580960000000005,-22.734379999999987,42.11748000000006l0,-42.11748Z" id="path7306" style="fill:#ffd500"/>
</svg>