<svg xmlns="http://www.w3.org/2000/svg" width="3040px" height="580px" viewBox="0 0 2289 437" version="1.1"  xmlns:xlink="http://www.w3.org/1999/xlink"><rect id="svgEditorBackground" x="0" y="0" width="2289" height="437" style="fill: none; stroke: none;"/>
<path fill="#417db1" d=" M 218.66 28.22 C 244.39 28.03 270.01 33.82 293.62 43.92 C 283.96 90.71 274.18 137.49 264.27 184.23 C 254.92 228.06 246.00 271.97 236.68 315.80 C 231.23 341.54 225.75 367.29 220.39 393.05 C 219.32 398.84 217.74 404.55 217.12 410.42 C 215.12 411.01 213.05 411.31 210.98 411.04 C 187.14 410.31 163.49 404.76 141.65 395.23 C 148.63 363.19 155.01 331.02 161.91 298.96 C 177.50 225.50 192.65 151.95 208.27 78.50 C 211.70 61.73 215.41 45.02 218.66 28.22 Z"/>
<path fill="#417db1" d=" M 67.53 101.50 C 85.92 77.99 109.97 59.02 136.97 46.31 C 136.57 49.29 135.97 52.25 135.31 55.18 C 123.09 112.40 111.43 169.72 99.23 226.94 C 90.77 266.51 82.73 306.16 74.32 345.74 C 39.31 306.09 21.75 251.48 27.79 198.87 C 31.76 163.61 45.41 129.32 67.53 101.50 Z"/>
<path fill="#417db1" d=" M 361.12 93.72 C 395.25 132.11 412.70 184.92 408.03 236.09 C 405.80 262.89 397.65 289.11 384.65 312.63 C 365.29 347.54 334.63 376.14 298.38 392.87 C 311.32 330.67 324.28 268.48 337.49 206.34 C 345.43 168.81 353.02 131.21 361.12 93.72 Z"/>
<path fill="#EEEEEE" d=" M 562.84 142.89 C 582.26 136.27 604.45 136.22 623.12 145.25 C 629.11 148.05 634.71 151.62 639.92 155.68 C 633.86 164.56 626.84 172.76 620.67 181.57 C 620.40 181.44 619.86 181.20 619.59 181.08 L 620.96 180.48 C 611.48 171.69 598.96 166.16 586.05 165.35 C 578.93 165.34 571.26 165.87 565.29 170.18 C 559.15 174.51 556.04 182.68 557.75 189.98 C 559.45 195.66 565.29 198.41 570.35 200.51 C 581.49 204.64 593.22 207.07 604.11 211.94 C 604.61 212.17 605.61 212.64 606.12 212.87 C 614.67 217.21 622.51 224.29 624.73 233.98 C 627.17 245.02 625.63 256.84 621.21 267.20 C 617.62 273.94 613.21 280.44 607.12 285.16 C 603.18 288.37 598.70 290.81 594.19 293.10 C 571.28 302.53 544.87 302.01 521.88 293.12 C 519.13 291.95 516.46 290.62 513.78 289.32 C 508.61 286.49 503.64 283.26 499.29 279.27 C 505.60 270.89 511.50 262.22 517.81 253.85 C 518.08 253.48 518.63 252.75 518.91 252.38 C 520.40 255.66 523.63 257.57 526.40 259.66 C 537.96 267.50 551.89 272.50 565.97 271.93 C 572.78 272.14 579.97 270.67 585.41 266.35 C 589.88 262.63 591.93 256.45 591.13 250.75 C 590.11 245.62 585.60 242.15 581.24 239.82 C 569.64 233.88 556.59 231.64 544.78 226.18 C 541.00 224.46 537.44 222.29 534.11 219.82 C 528.46 215.70 524.70 209.29 523.79 202.37 C 521.88 187.74 526.55 172.50 536.15 161.33 C 543.09 152.80 552.66 146.82 562.84 142.89 Z"/>
<path fill="#EEEEEE" d=" M 741.11 149.27 C 755.04 141.57 771.07 137.11 787.06 138.39 C 802.48 139.27 817.15 147.51 826.30 159.90 C 833.65 169.78 837.93 181.74 839.50 193.90 C 839.78 199.24 841.02 204.62 839.88 209.94 C 839.34 225.62 833.27 240.64 824.97 253.76 C 816.20 267.48 804.12 278.98 790.11 287.25 C 776.51 295.20 760.84 299.86 745.01 299.18 C 727.68 299.20 711.00 289.78 701.19 275.65 C 691.43 261.66 687.56 243.94 689.04 227.08 C 689.87 211.19 696.22 196.03 704.85 182.83 C 714.06 169.00 726.54 157.30 741.11 149.27 Z M 749.25 174.28 C 759.48 167.10 772.84 163.84 785.06 167.10 C 796.46 170.35 804.39 180.88 807.03 192.10 C 807.37 193.76 807.63 195.43 807.95 197.10 C 809.30 205.30 808.87 213.81 806.98 221.90 C 802.96 238.89 792.86 254.65 778.17 264.30 C 768.82 270.60 756.93 273.47 745.83 271.07 C 736.83 269.17 729.41 262.50 725.28 254.45 C 720.29 244.82 719.62 233.63 720.58 223.01 C 723.14 203.89 733.12 185.25 749.25 174.28 Z" fill-rule="evenodd"/>
<path fill="#EEEEEE" d=" M 958.89 143.95 C 974.16 138.19 991.22 136.62 1007.13 140.54 C 1020.63 143.81 1032.53 153.29 1038.36 165.95 C 1038.85 167.34 1039.38 168.72 1039.91 170.11 C 1040.14 170.88 1040.60 172.43 1040.83 173.20 C 1033.79 177.32 1026.87 181.66 1019.83 185.78 C 1017.73 186.86 1015.83 189.02 1013.31 188.67 C 1012.53 186.13 1011.94 183.52 1010.86 181.09 C 1007.65 175.14 1002.33 170.35 995.89 168.20 C 983.89 163.92 969.98 165.50 959.17 172.20 C 944.91 180.49 935.20 195.05 930.40 210.59 C 926.09 224.25 925.93 239.63 932.00 252.79 C 936.04 261.67 943.75 269.35 953.53 271.40 C 971.55 274.59 990.44 265.19 1000.25 250.03 C 1000.75 249.08 1001.72 247.78 1002.93 248.66 C 1009.91 253.26 1016.94 257.82 1023.92 262.45 C 1018.63 272.01 1010.12 279.20 1001.21 285.25 C 999.51 286.22 997.83 287.20 996.15 288.18 C 995.66 288.45 994.69 288.99 994.20 289.27 C 993.15 289.74 992.12 290.22 991.10 290.72 C 976.78 297.29 960.69 300.95 944.93 298.90 C 929.38 296.68 915.56 286.65 907.34 273.45 C 897.95 258.51 894.48 240.29 896.36 222.85 C 900.92 187.87 925.84 156.35 958.89 143.95 Z"/>
<path fill="#EEEEEE" d=" M 1114.68 139.48 C 1125.02 139.37 1135.37 139.36 1145.71 139.49 C 1145.46 140.33 1144.95 142.03 1144.70 142.88 C 1144.54 143.95 1144.40 145.03 1144.26 146.10 C 1143.70 148.03 1143.36 150.00 1142.85 151.93 C 1142.00 156.63 1141.00 161.30 1139.91 165.94 C 1139.38 168.99 1138.70 172.00 1137.99 175.01 C 1131.83 204.74 1125.21 234.36 1119.03 264.09 C 1117.96 268.73 1116.96 273.38 1116.06 278.06 C 1115.64 279.69 1115.34 281.34 1115.04 282.99 C 1114.30 285.99 1113.66 289.01 1113.11 292.05 C 1112.56 293.88 1112.38 295.78 1112.23 297.68 C 1101.92 298.69 1091.50 297.89 1081.15 298.13 C 1081.38 296.42 1081.64 294.72 1082.06 293.05 C 1083.01 288.38 1083.97 283.72 1085.04 279.09 C 1091.88 246.35 1099.12 213.69 1105.96 180.94 C 1106.35 179.31 1106.63 177.66 1106.97 176.02 C 1107.68 173.01 1108.36 169.99 1108.88 166.94 C 1109.37 165.01 1109.73 163.04 1110.22 161.11 C 1110.74 158.06 1111.42 155.04 1112.14 152.03 C 1112.41 150.38 1112.69 148.72 1113.14 147.10 C 1113.58 144.55 1114.20 142.03 1114.68 139.48 Z"/>
<path fill="#EEEEEE" d=" M 1265.42 139.24 C 1274.57 139.15 1283.72 139.22 1292.87 139.20 C 1296.72 164.46 1300.42 189.75 1303.93 215.06 C 1304.47 217.35 1304.62 219.70 1304.92 222.03 C 1306.38 231.02 1307.70 240.05 1308.81 249.09 C 1309.51 251.35 1309.52 253.73 1309.79 256.07 C 1310.61 258.64 1310.36 261.40 1311.18 263.98 C 1311.40 266.31 1311.44 268.70 1312.17 270.96 C 1312.40 273.29 1312.46 275.67 1313.18 277.92 C 1313.37 280.26 1313.49 282.63 1314.15 284.91 C 1314.50 289.34 1315.49 293.69 1315.79 298.14 C 1305.13 297.95 1294.44 298.54 1283.80 297.81 C 1283.56 295.17 1283.35 292.53 1283.14 289.90 C 1282.43 287.30 1282.36 284.59 1282.14 281.93 C 1281.42 279.32 1281.39 276.59 1281.18 273.92 C 1280.39 271.33 1280.41 268.60 1280.20 265.93 C 1279.46 263.53 1279.41 261.01 1279.31 258.53 C 1262.29 258.41 1245.27 258.54 1228.25 258.46 C 1222.74 268.59 1217.22 278.73 1211.75 288.88 C 1210.19 291.80 1208.57 294.69 1207.21 297.70 C 1196.55 298.67 1185.78 297.91 1175.08 298.11 C 1175.87 296.33 1176.78 294.62 1177.76 292.93 C 1178.90 290.97 1180.02 288.99 1181.15 287.02 C 1190.25 270.85 1199.63 254.84 1208.71 238.66 C 1220.14 218.44 1231.79 198.34 1243.22 178.12 C 1244.06 176.65 1244.85 175.15 1245.68 173.67 C 1246.18 172.82 1246.68 171.97 1247.19 171.12 C 1253.19 160.45 1259.31 149.85 1265.42 139.24 Z M 1243.79 225.87 C 1253.01 209.10 1261.83 192.09 1271.47 175.57 C 1272.42 179.33 1272.62 183.21 1272.83 187.07 C 1273.70 189.99 1273.56 193.06 1273.81 196.07 C 1274.73 198.97 1274.52 202.06 1274.81 205.06 C 1275.75 207.96 1275.48 211.05 1275.80 214.05 C 1276.94 217.23 1276.10 220.74 1277.21 223.94 C 1277.50 226.74 1277.58 229.57 1277.61 232.39 C 1277.81 232.41 1278.22 232.46 1278.42 232.49 C 1278.40 233.97 1278.40 235.46 1278.42 236.95 C 1264.81 236.88 1251.20 237.05 1237.60 236.86 C 1240.05 233.43 1241.71 229.53 1243.79 225.87 Z" fill-rule="evenodd"/>
<path fill="#EEEEEE" d=" M 1410.69 139.38 C 1421.02 138.99 1431.37 139.28 1441.72 139.22 C 1441.23 142.17 1440.62 145.09 1439.92 147.98 C 1439.58 149.62 1439.31 151.27 1438.90 152.89 C 1438.34 155.94 1437.69 158.97 1436.94 161.98 C 1430.52 193.38 1423.50 224.66 1417.03 256.05 C 1416.30 259.05 1415.67 262.08 1415.08 265.12 C 1414.58 267.02 1414.33 268.97 1414.13 270.93 C 1439.24 270.95 1464.35 270.92 1489.47 270.94 C 1487.88 280.05 1485.57 289.01 1484.07 298.13 C 1448.46 298.14 1412.85 298.16 1377.25 298.12 C 1377.48 296.75 1377.78 295.39 1378.13 294.04 C 1378.40 292.39 1378.70 290.74 1379.15 289.12 C 1379.68 286.07 1380.34 283.05 1381.08 280.05 C 1381.36 278.41 1381.67 276.77 1382.09 275.16 C 1382.65 272.11 1383.30 269.07 1384.03 266.06 C 1389.90 237.97 1396.06 209.94 1401.97 181.86 C 1402.33 180.23 1402.65 178.59 1402.99 176.95 C 1403.68 173.94 1404.34 170.92 1404.91 167.89 C 1405.31 166.27 1405.61 164.62 1405.93 162.98 C 1406.65 159.97 1407.31 156.94 1407.86 153.89 C 1408.30 152.27 1408.55 150.61 1408.87 148.96 C 1409.36 147.01 1409.71 145.02 1410.29 143.09 C 1410.41 141.85 1410.54 140.61 1410.69 139.38 Z"/>
<path fill="#EEEEEE" d=" M 1580.53 139.26 C 1614.83 139.13 1649.14 139.22 1683.44 139.21 C 1682.95 141.51 1682.46 143.81 1682.05 146.12 C 1681.65 147.75 1681.33 149.40 1681.02 151.05 C 1680.63 152.70 1680.33 154.36 1680.05 156.02 C 1679.20 159.43 1678.43 162.87 1678.16 166.38 C 1654.03 166.75 1629.88 166.43 1605.74 166.55 C 1605.52 167.16 1605.10 168.37 1604.88 168.98 C 1604.59 170.65 1604.35 172.32 1603.97 173.96 C 1603.60 175.59 1603.31 177.23 1602.91 178.84 C 1601.20 187.47 1599.29 196.05 1597.52 204.67 C 1618.27 204.71 1639.01 204.65 1659.76 204.70 C 1657.96 213.07 1656.22 221.45 1654.35 229.81 C 1633.66 229.77 1612.98 229.86 1592.30 229.76 C 1588.86 243.37 1586.51 257.24 1583.30 270.91 C 1608.03 270.98 1632.76 270.91 1657.49 270.94 C 1655.94 279.92 1653.29 288.69 1652.09 297.72 C 1643.78 298.65 1635.37 297.90 1627.03 298.14 C 1600.67 298.14 1574.30 298.14 1547.94 298.14 C 1547.60 297.95 1546.90 297.57 1546.56 297.38 C 1547.16 295.64 1547.64 293.86 1548.09 292.07 C 1548.34 290.42 1548.66 288.79 1549.08 287.18 C 1554.95 259.09 1561.13 231.06 1567.02 202.97 C 1567.71 199.95 1568.36 196.92 1568.95 193.88 C 1569.34 192.25 1569.63 190.61 1569.97 188.98 C 1570.68 185.97 1571.34 182.94 1571.89 179.90 C 1572.32 178.28 1572.58 176.62 1572.91 174.97 C 1573.63 171.97 1574.31 168.95 1574.83 165.90 C 1575.33 163.96 1575.67 161.99 1576.17 160.05 C 1576.42 158.39 1576.71 156.73 1577.15 155.11 C 1577.39 153.71 1577.68 152.32 1578.04 150.94 C 1578.35 149.31 1578.66 147.66 1579.08 146.04 C 1579.46 143.76 1579.97 141.50 1580.53 139.26 Z"/>
<path fill="#EEEEEE" d=" M 1753.81 139.30 C 1767.85 139.08 1781.91 139.26 1795.97 139.20 C 1807.03 139.25 1818.34 138.77 1829.11 141.80 C 1835.51 143.42 1841.39 146.57 1846.89 150.17 C 1860.30 160.11 1867.80 176.54 1868.69 192.98 C 1869.82 202.96 1868.83 213.09 1867.05 222.95 C 1861.93 248.81 1845.88 272.76 1822.70 285.70 C 1821.82 286.22 1820.97 286.73 1820.12 287.24 C 1818.75 287.87 1817.40 288.50 1816.08 289.17 C 1813.80 290.24 1811.50 291.22 1809.17 292.14 C 1799.56 295.86 1789.30 297.78 1779.02 298.15 C 1759.38 298.12 1739.73 298.16 1720.09 298.13 C 1724.75 276.42 1729.45 254.71 1734.01 232.98 C 1734.70 229.96 1735.36 226.93 1735.93 223.89 C 1736.33 222.26 1736.60 220.61 1736.96 218.98 C 1737.67 215.97 1738.33 212.94 1738.88 209.90 C 1739.31 208.28 1739.56 206.61 1739.88 204.96 C 1740.62 201.96 1741.33 198.95 1741.80 195.89 C 1742.27 193.95 1742.61 191.98 1743.13 190.05 C 1743.65 187.00 1744.31 183.97 1745.05 180.96 C 1745.34 179.32 1745.64 177.67 1746.06 176.05 C 1747.00 171.38 1747.98 166.72 1749.05 162.08 C 1750.50 154.46 1752.30 146.91 1753.81 139.30 Z  M 1778.15 170.03 C 1778.29 168.89 1778.46 167.75 1778.64 166.61 C 1786.78 166.46 1794.92 166.58 1803.06 166.53 C 1809.76 166.48 1816.71 167.76 1822.36 171.53 C 1828.59 175.57 1832.63 182.21 1835.00 189.12 C 1835.34 190.42 1835.63 191.73 1836.04 193.04 C 1836.53 195.35 1836.65 197.72 1836.86 200.08 C 1837.55 203.65 1837.60 207.38 1836.86 210.95 C 1836.79 216.72 1835.63 222.39 1834.01 227.91 C 1828.67 246.40 1814.81 263.10 1796.04 268.82 C 1787.66 271.69 1778.72 270.82 1770.03 270.94 C 1765.60 270.93 1761.18 270.96 1756.77 270.90 C 1760.45 253.24 1764.37 235.63 1767.97 217.96 C 1768.67 214.94 1769.33 211.91 1769.89 208.85 C 1770.31 207.24 1770.57 205.59 1770.93 203.96 C 1771.33 202.34 1771.59 200.68 1771.94 199.04 C 1772.65 196.02 1773.33 192.99 1773.84 189.92 C 1774.33 187.99 1774.67 186.02 1775.18 184.09 C 1775.64 181.02 1776.33 178.00 1777.07 174.99 C 1777.35 173.32 1777.64 171.65 1778.15 170.03 Z" fill-rule="evenodd"/>
<path fill="#EEEEEE" d=" M 1978.53 148.26 C 1999.02 137.34 2024.62 134.32 2046.22 143.77 C 2048.96 145.25 2051.65 146.88 2054.20 148.70 C 2062.13 154.57 2067.35 163.25 2070.58 172.44 C 2062.06 178.83 2052.67 184.06 2043.75 189.90 C 2043.20 188.51 2042.73 187.15 2042.29 185.75 C 2039.96 179.69 2035.89 174.21 2030.30 170.81 C 2020.11 164.15 2006.71 164.35 1995.64 168.58 C 1972.39 178.38 1957.63 203.28 1956.79 228.03 C 1956.21 240.00 1959.21 252.60 1967.17 261.82 C 1974.14 269.77 1985.38 273.23 1995.72 271.53 C 2009.99 269.67 2022.12 260.94 2032.33 251.31 C 2033.41 250.47 2033.62 249.09 2034.02 247.86 C 2034.32 246.23 2034.59 244.59 2034.96 242.97 C 2035.28 241.74 2035.52 240.49 2035.84 239.25 C 2028.90 239.15 2021.96 239.22 2015.02 239.20 C 2011.71 239.17 2008.34 239.53 2005.17 238.50 C 2006.58 236.64 2006.55 234.21 2007.20 232.05 C 2007.71 229.04 2008.37 226.05 2009.14 223.09 C 2009.47 220.88 2010.03 218.71 2010.58 216.54 C 2029.05 216.58 2047.52 216.51 2065.99 216.58 C 2064.92 225.89 2062.26 234.94 2060.50 244.14 C 2056.72 262.14 2052.58 280.08 2049.04 298.13 C 2040.45 298.15 2031.87 298.14 2023.29 298.13 C 2024.48 292.19 2025.99 286.31 2026.91 280.32 C 2021.99 285.12 2016.16 288.87 2010.19 292.21 C 1993.00 301.21 1970.98 302.14 1954.16 291.77 C 1940.93 284.13 1932.15 270.50 1928.00 256.05 C 1922.24 235.68 1924.92 213.32 1934.28 194.44 C 1943.55 174.81 1959.35 158.40 1978.53 148.26 Z"/>
<path fill="#EEEEEE" d=" M 2152.59 139.29 C 2186.90 139.11 2221.21 139.21 2255.52 139.24 C 2253.82 148.34 2251.68 157.35 2250.00 166.45 C 2225.83 166.67 2201.66 166.45 2177.50 166.56 C 2177.41 167.18 2177.24 168.40 2177.16 169.02 C 2176.66 170.62 2176.34 172.26 2176.06 173.90 C 2175.34 176.95 2174.66 180.00 2174.17 183.09 C 2173.64 185.02 2173.32 187.00 2172.83 188.93 C 2172.50 190.59 2172.27 192.26 2171.82 193.88 C 2171.16 197.51 2170.42 201.12 2169.49 204.68 C 2190.29 204.71 2211.09 204.64 2231.90 204.71 C 2230.21 213.08 2228.34 221.42 2226.54 229.76 C 2209.03 229.86 2191.51 229.78 2174.00 229.80 C 2170.61 229.88 2167.15 229.43 2163.87 230.39 C 2161.65 244.00 2158.16 257.38 2155.56 270.93 C 2180.27 270.95 2204.98 270.92 2229.69 270.94 C 2227.82 280.03 2225.86 289.10 2223.83 298.15 C 2188.87 298.12 2153.91 298.17 2118.96 298.12 C 2123.47 276.04 2128.44 254.05 2132.98 231.97 C 2133.68 228.95 2134.34 225.92 2134.89 222.87 C 2135.29 221.25 2135.59 219.60 2135.95 217.97 C 2136.34 216.33 2136.59 214.67 2136.95 213.03 C 2137.66 210.02 2138.34 207.00 2138.86 203.95 C 2139.35 202.02 2139.70 200.05 2140.21 198.12 C 2140.68 195.06 2141.36 192.03 2142.11 189.03 C 2142.37 187.38 2142.68 185.73 2143.12 184.11 C 2143.66 181.06 2144.31 178.03 2145.05 175.02 C 2145.33 173.39 2145.65 171.75 2146.06 170.13 C 2148.17 159.84 2150.46 149.58 2152.59 139.29 Z"/>
</svg>