<svg xmlns="http://www.w3.org/2000/svg" width="625px" height="597px" viewBox="0 0 471 450" version="1.1"  xmlns:xlink="http://www.w3.org/1999/xlink"><rect id="svgEditorBackground" x="0" y="0" width="471" height="450" style="fill: none; stroke: none;"/>

<path fill="#357bb7" d=" M 236.36 19.01 C 264.12 18.88 291.83 24.98 317.31 35.93 C 296.54 135.59 275.47 235.20 254.60 334.84 C 247.69 367.40 241.04 400.02 233.97 432.54 C 206.24 432.29 178.56 426.52 153.12 415.44 C 180.92 283.31 208.72 151.18 236.36 19.01 Z"/>
<path fill="#357bb7" d=" M 72.18 99.15 C 92.23 73.33 118.49 52.33 148.14 38.55 C 125.58 146.30 102.95 254.04 80.25 361.77 C 54.01 331.90 36.63 294.30 31.01 254.93 C 22.97 200.30 38.03 142.60 72.18 99.15 Z"/>
<path fill="#357bb7" d=" M 390.27 89.63 C 428.51 132.87 447.34 192.68 440.18 250.02 C 434.98 294.84 414.67 337.85 382.87 369.93 C 365.56 387.79 344.88 402.34 322.39 412.94 C 344.90 305.15 367.61 197.39 390.27 89.63 Z"/>
</svg>